<mxfile host="app.diagrams.net" modified="2023-03-28T13:08:55.570Z" agent="Mozilla/5.0 (Windows NT 10.0; Win64; x64) AppleWebKit/537.36 (KHTML, like Gecko) Chrome/111.0.0.0 Safari/537.36 Edg/111.0.1661.54" etag="ouLX5XjKYg1TCpIoTSdB" version="21.1.1" type="github">
  <diagram name="第 1 页" id="kducE6gqBiEI2L0WaiRr">
    <mxGraphModel dx="2840" dy="1087" grid="1" gridSize="10" guides="1" tooltips="1" connect="1" arrows="1" fold="1" page="1" pageScale="1" pageWidth="827" pageHeight="1169" math="0" shadow="0">
      <root>
        <mxCell id="0" />
        <mxCell id="1" parent="0" />
        <mxCell id="SI7507P59rwNNI1zx-k7-13" value="&lt;h2 style=&quot;border-color: var(--border-color); text-align: center;&quot;&gt;&amp;nbsp; 场景1&lt;/h2&gt;&lt;h2 style=&quot;border-color: var(--border-color);&quot;&gt;&lt;div style=&quot;border-color: var(--border-color);&quot;&gt;&lt;br&gt;&lt;/div&gt;&lt;div style=&quot;border-color: var(--border-color);&quot;&gt;&lt;br&gt;&lt;/div&gt;&lt;div style=&quot;border-color: var(--border-color);&quot;&gt;&lt;br&gt;&lt;/div&gt;&lt;div style=&quot;border-color: var(--border-color);&quot;&gt;&lt;br style=&quot;border-color: var(--border-color);&quot;&gt;&lt;/div&gt;&lt;div style=&quot;border-color: var(--border-color);&quot;&gt;&lt;br&gt;&lt;/div&gt;&lt;/h2&gt;" style="rounded=1;whiteSpace=wrap;html=1;dashed=1;dashPattern=1 4;align=left;" vertex="1" parent="1">
          <mxGeometry x="-170" y="470" width="420" height="170" as="geometry" />
        </mxCell>
        <mxCell id="SI7507P59rwNNI1zx-k7-38" value="&lt;h2 style=&quot;border-color: var(--border-color); text-align: center;&quot;&gt;&amp;nbsp; 场景2&lt;/h2&gt;&lt;h2 style=&quot;border-color: var(--border-color);&quot;&gt;&lt;div style=&quot;border-color: var(--border-color);&quot;&gt;&lt;br style=&quot;border-color: var(--border-color);&quot;&gt;&lt;/div&gt;&lt;div style=&quot;border-color: var(--border-color);&quot;&gt;&lt;br style=&quot;border-color: var(--border-color);&quot;&gt;&lt;/div&gt;&lt;div style=&quot;border-color: var(--border-color);&quot;&gt;&lt;br style=&quot;border-color: var(--border-color);&quot;&gt;&lt;/div&gt;&lt;div style=&quot;border-color: var(--border-color);&quot;&gt;&lt;br&gt;&lt;/div&gt;&lt;div style=&quot;border-color: var(--border-color);&quot;&gt;&lt;br&gt;&lt;/div&gt;&lt;/h2&gt;" style="rounded=1;whiteSpace=wrap;html=1;dashed=1;dashPattern=1 4;align=left;" vertex="1" parent="1">
          <mxGeometry x="280" y="470" width="420" height="170" as="geometry" />
        </mxCell>
        <mxCell id="SI7507P59rwNNI1zx-k7-49" value="&lt;h2 style=&quot;border-color: var(--border-color); text-align: center;&quot;&gt;&amp;nbsp; 场景3（叶场景）&lt;/h2&gt;&lt;div&gt;&lt;br&gt;&lt;/div&gt;&lt;div&gt;&lt;br&gt;&lt;/div&gt;&lt;div&gt;&lt;br&gt;&lt;/div&gt;&lt;div&gt;&lt;br&gt;&lt;/div&gt;&lt;div&gt;&lt;br&gt;&lt;/div&gt;&lt;div&gt;&lt;br&gt;&lt;/div&gt;&lt;div&gt;&lt;br&gt;&lt;/div&gt;&lt;div&gt;&lt;br&gt;&lt;/div&gt;&lt;div&gt;&lt;br&gt;&lt;/div&gt;" style="rounded=1;whiteSpace=wrap;html=1;dashed=1;dashPattern=1 4;align=left;gradientColor=none;" vertex="1" parent="1">
          <mxGeometry x="730" y="470" width="330" height="170" as="geometry" />
        </mxCell>
        <mxCell id="SI7507P59rwNNI1zx-k7-60" value="&lt;h2 style=&quot;border-color: var(--border-color); text-align: center;&quot;&gt;&amp;nbsp; 场景1-1（叶场景）&lt;/h2&gt;&lt;h2 style=&quot;border-color: var(--border-color); text-align: center;&quot;&gt;&lt;div style=&quot;border-color: var(--border-color);&quot;&gt;&lt;br style=&quot;border-color: var(--border-color); font-size: 12px; font-weight: 400; text-align: left;&quot;&gt;&lt;/div&gt;&lt;div style=&quot;border-color: var(--border-color);&quot;&gt;&lt;br&gt;&lt;/div&gt;&lt;div style=&quot;border-color: var(--border-color);&quot;&gt;&lt;br&gt;&lt;/div&gt;&lt;div style=&quot;border-color: var(--border-color);&quot;&gt;&lt;br&gt;&lt;/div&gt;&lt;/h2&gt;" style="rounded=1;whiteSpace=wrap;html=1;dashed=1;dashPattern=8 8;align=left;" vertex="1" parent="1">
          <mxGeometry x="-250" y="690" width="286.36" height="150" as="geometry" />
        </mxCell>
        <mxCell id="SI7507P59rwNNI1zx-k7-90" value="&lt;h2 style=&quot;border-color: var(--border-color); text-align: center;&quot;&gt;&amp;nbsp; 场景2-1（叶场景）&lt;/h2&gt;&lt;h2 style=&quot;border-color: var(--border-color); text-align: center;&quot;&gt;&lt;div style=&quot;border-color: var(--border-color);&quot;&gt;&lt;br style=&quot;border-color: var(--border-color); font-size: 12px; font-weight: 400; text-align: left;&quot;&gt;&lt;/div&gt;&lt;div style=&quot;border-color: var(--border-color);&quot;&gt;&lt;br&gt;&lt;/div&gt;&lt;div style=&quot;border-color: var(--border-color);&quot;&gt;&lt;br&gt;&lt;/div&gt;&lt;div style=&quot;border-color: var(--border-color);&quot;&gt;&lt;br&gt;&lt;/div&gt;&lt;/h2&gt;" style="rounded=1;whiteSpace=wrap;html=1;dashed=1;dashPattern=8 8;align=left;" vertex="1" parent="1">
          <mxGeometry x="110" y="690" width="286.36" height="150" as="geometry" />
        </mxCell>
        <mxCell id="SI7507P59rwNNI1zx-k7-100" value="&lt;h2 style=&quot;border-color: var(--border-color); text-align: center;&quot;&gt;&amp;nbsp; 场景2-2（叶场景）&lt;/h2&gt;&lt;div&gt;&lt;br&gt;&lt;/div&gt;&lt;h2 style=&quot;border-color: var(--border-color);&quot;&gt;&lt;div style=&quot;border-color: var(--border-color);&quot;&gt;&lt;br&gt;&lt;/div&gt;&lt;div style=&quot;border-color: var(--border-color);&quot;&gt;&lt;br style=&quot;border-color: var(--border-color);&quot;&gt;&lt;/div&gt;&lt;div style=&quot;border-color: var(--border-color);&quot;&gt;&lt;br&gt;&lt;/div&gt;&lt;/h2&gt;" style="rounded=1;whiteSpace=wrap;html=1;dashed=1;dashPattern=8 8;align=left;" vertex="1" parent="1">
          <mxGeometry x="460" y="690" width="286.36" height="150" as="geometry" />
        </mxCell>
        <mxCell id="SI7507P59rwNNI1zx-k7-24" value="" style="edgeStyle=orthogonalEdgeStyle;rounded=0;orthogonalLoop=1;jettySize=auto;html=1;curved=1;dashed=1;dashPattern=8 8;" edge="1" parent="1" source="SI7507P59rwNNI1zx-k7-1" target="SI7507P59rwNNI1zx-k7-3">
          <mxGeometry relative="1" as="geometry">
            <mxPoint x="370" y="215" as="targetPoint" />
          </mxGeometry>
        </mxCell>
        <mxCell id="SI7507P59rwNNI1zx-k7-1" value="&lt;h2&gt;根场景&lt;/h2&gt;" style="ellipse;whiteSpace=wrap;html=1;" vertex="1" parent="1">
          <mxGeometry x="320" y="190" width="120" height="50" as="geometry" />
        </mxCell>
        <mxCell id="SI7507P59rwNNI1zx-k7-25" value="" style="edgeStyle=orthogonalEdgeStyle;rounded=0;orthogonalLoop=1;jettySize=auto;html=1;curved=1;dashed=1;dashPattern=8 8;" edge="1" parent="1" source="SI7507P59rwNNI1zx-k7-2" target="SI7507P59rwNNI1zx-k7-13">
          <mxGeometry relative="1" as="geometry">
            <Array as="points">
              <mxPoint x="302" y="400" />
              <mxPoint x="40" y="400" />
            </Array>
          </mxGeometry>
        </mxCell>
        <mxCell id="SI7507P59rwNNI1zx-k7-37" value="" style="edgeStyle=orthogonalEdgeStyle;rounded=0;orthogonalLoop=1;jettySize=auto;html=1;curved=1;" edge="1" parent="1" source="SI7507P59rwNNI1zx-k7-15" target="SI7507P59rwNNI1zx-k7-35">
          <mxGeometry relative="1" as="geometry" />
        </mxCell>
        <mxCell id="SI7507P59rwNNI1zx-k7-151" value="" style="edgeStyle=orthogonalEdgeStyle;rounded=0;orthogonalLoop=1;jettySize=auto;html=1;curved=1;dashed=1;dashPattern=8 8;" edge="1" parent="1" source="SI7507P59rwNNI1zx-k7-15" target="SI7507P59rwNNI1zx-k7-60">
          <mxGeometry relative="1" as="geometry" />
        </mxCell>
        <mxCell id="SI7507P59rwNNI1zx-k7-15" value="&lt;h2 style=&quot;border-color: var(--border-color);&quot;&gt;场景1-1&lt;/h2&gt;" style="ellipse;whiteSpace=wrap;html=1;" vertex="1" parent="1">
          <mxGeometry x="-15" y="530" width="120" height="60" as="geometry" />
        </mxCell>
        <mxCell id="SI7507P59rwNNI1zx-k7-36" value="" style="edgeStyle=orthogonalEdgeStyle;rounded=0;orthogonalLoop=1;jettySize=auto;html=1;curved=1;" edge="1" parent="1" source="SI7507P59rwNNI1zx-k7-34" target="SI7507P59rwNNI1zx-k7-15">
          <mxGeometry relative="1" as="geometry" />
        </mxCell>
        <mxCell id="SI7507P59rwNNI1zx-k7-34" value="Start" style="ellipse;whiteSpace=wrap;html=1;dashed=1;" vertex="1" parent="1">
          <mxGeometry x="-155" y="533.6700000000001" width="80" height="53.33" as="geometry" />
        </mxCell>
        <mxCell id="SI7507P59rwNNI1zx-k7-35" value="End" style="ellipse;whiteSpace=wrap;html=1;dashed=1;" vertex="1" parent="1">
          <mxGeometry x="145" y="530.33" width="90" height="60" as="geometry" />
        </mxCell>
        <mxCell id="SI7507P59rwNNI1zx-k7-39" value="" style="edgeStyle=orthogonalEdgeStyle;rounded=0;orthogonalLoop=1;jettySize=auto;html=1;curved=1;" edge="1" parent="1" source="SI7507P59rwNNI1zx-k7-40" target="SI7507P59rwNNI1zx-k7-43">
          <mxGeometry relative="1" as="geometry" />
        </mxCell>
        <mxCell id="SI7507P59rwNNI1zx-k7-152" value="" style="edgeStyle=orthogonalEdgeStyle;rounded=0;orthogonalLoop=1;jettySize=auto;html=1;curved=1;dashed=1;dashPattern=8 8;" edge="1" parent="1" source="SI7507P59rwNNI1zx-k7-40" target="SI7507P59rwNNI1zx-k7-90">
          <mxGeometry relative="1" as="geometry">
            <Array as="points">
              <mxPoint x="400" y="520" />
              <mxPoint x="400" y="530" />
              <mxPoint x="253" y="530" />
            </Array>
          </mxGeometry>
        </mxCell>
        <mxCell id="SI7507P59rwNNI1zx-k7-40" value="&lt;h2 style=&quot;border-color: var(--border-color);&quot;&gt;场景2-1&lt;/h2&gt;" style="ellipse;whiteSpace=wrap;html=1;" vertex="1" parent="1">
          <mxGeometry x="430" y="510" width="120" height="50" as="geometry" />
        </mxCell>
        <mxCell id="SI7507P59rwNNI1zx-k7-41" value="" style="edgeStyle=orthogonalEdgeStyle;rounded=0;orthogonalLoop=1;jettySize=auto;html=1;curved=1;" edge="1" parent="1" source="SI7507P59rwNNI1zx-k7-42" target="SI7507P59rwNNI1zx-k7-40">
          <mxGeometry relative="1" as="geometry" />
        </mxCell>
        <mxCell id="SI7507P59rwNNI1zx-k7-47" value="" style="edgeStyle=orthogonalEdgeStyle;rounded=0;orthogonalLoop=1;jettySize=auto;html=1;curved=1;" edge="1" parent="1" source="SI7507P59rwNNI1zx-k7-42" target="SI7507P59rwNNI1zx-k7-46">
          <mxGeometry relative="1" as="geometry" />
        </mxCell>
        <mxCell id="SI7507P59rwNNI1zx-k7-42" value="Start" style="ellipse;whiteSpace=wrap;html=1;dashed=1;" vertex="1" parent="1">
          <mxGeometry x="290" y="558.0000000000001" width="80" height="53.33" as="geometry" />
        </mxCell>
        <mxCell id="SI7507P59rwNNI1zx-k7-43" value="End" style="ellipse;whiteSpace=wrap;html=1;dashed=1;" vertex="1" parent="1">
          <mxGeometry x="600" y="550" width="85" height="55" as="geometry" />
        </mxCell>
        <mxCell id="SI7507P59rwNNI1zx-k7-45" value="" style="edgeStyle=orthogonalEdgeStyle;rounded=0;orthogonalLoop=1;jettySize=auto;html=1;curved=1;dashed=1;dashPattern=8 8;" edge="1" parent="1" source="SI7507P59rwNNI1zx-k7-5" target="SI7507P59rwNNI1zx-k7-38">
          <mxGeometry relative="1" as="geometry">
            <mxPoint x="290" y="380" as="sourcePoint" />
            <mxPoint x="50" y="480" as="targetPoint" />
          </mxGeometry>
        </mxCell>
        <mxCell id="SI7507P59rwNNI1zx-k7-48" value="" style="edgeStyle=orthogonalEdgeStyle;rounded=0;orthogonalLoop=1;jettySize=auto;html=1;curved=1;" edge="1" parent="1" source="SI7507P59rwNNI1zx-k7-46" target="SI7507P59rwNNI1zx-k7-43">
          <mxGeometry relative="1" as="geometry" />
        </mxCell>
        <mxCell id="SI7507P59rwNNI1zx-k7-153" value="" style="edgeStyle=orthogonalEdgeStyle;rounded=0;orthogonalLoop=1;jettySize=auto;html=1;curved=1;dashed=1;dashPattern=8 8;" edge="1" parent="1" source="SI7507P59rwNNI1zx-k7-46" target="SI7507P59rwNNI1zx-k7-100">
          <mxGeometry relative="1" as="geometry" />
        </mxCell>
        <mxCell id="SI7507P59rwNNI1zx-k7-46" value="&lt;h2 style=&quot;border-color: var(--border-color);&quot;&gt;场景2-2&lt;/h2&gt;" style="ellipse;whiteSpace=wrap;html=1;" vertex="1" parent="1">
          <mxGeometry x="430" y="571" width="120" height="50" as="geometry" />
        </mxCell>
        <mxCell id="SI7507P59rwNNI1zx-k7-58" value="" style="edgeStyle=orthogonalEdgeStyle;rounded=0;orthogonalLoop=1;jettySize=auto;html=1;curved=1;entryX=0.5;entryY=0;entryDx=0;entryDy=0;exitX=1;exitY=0;exitDx=0;exitDy=0;dashed=1;dashPattern=8 8;" edge="1" parent="1" source="SI7507P59rwNNI1zx-k7-4" target="SI7507P59rwNNI1zx-k7-49">
          <mxGeometry relative="1" as="geometry">
            <mxPoint x="560" y="300" as="sourcePoint" />
            <mxPoint x="600" y="337" as="targetPoint" />
          </mxGeometry>
        </mxCell>
        <mxCell id="SI7507P59rwNNI1zx-k7-113" value="" style="group" vertex="1" connectable="0" parent="1">
          <mxGeometry x="-239.77285714285713" y="730" width="269.9057142857143" height="90" as="geometry" />
        </mxCell>
        <mxCell id="SI7507P59rwNNI1zx-k7-62" value="&lt;h2 style=&quot;border-color: var(--border-color);&quot;&gt;&lt;font style=&quot;font-size: 14px;&quot;&gt;动作1&lt;/font&gt;&lt;/h2&gt;" style="ellipse;whiteSpace=wrap;html=1;fillColor=#d5e8d4;strokeColor=#82b366;" vertex="1" parent="SI7507P59rwNNI1zx-k7-113">
          <mxGeometry x="92.04285714285712" width="81.82" height="41.82" as="geometry" />
        </mxCell>
        <mxCell id="SI7507P59rwNNI1zx-k7-63" value="" style="edgeStyle=orthogonalEdgeStyle;rounded=0;orthogonalLoop=1;jettySize=auto;html=1;curved=1;" edge="1" parent="SI7507P59rwNNI1zx-k7-113" source="SI7507P59rwNNI1zx-k7-64" target="SI7507P59rwNNI1zx-k7-62">
          <mxGeometry relative="1" as="geometry" />
        </mxCell>
        <mxCell id="SI7507P59rwNNI1zx-k7-64" value="Start" style="ellipse;whiteSpace=wrap;html=1;dashed=1;fillColor=#d5e8d4;strokeColor=#82b366;" vertex="1" parent="SI7507P59rwNNI1zx-k7-113">
          <mxGeometry y="28.181818181818244" width="54.54476190476191" height="36.361363636363635" as="geometry" />
        </mxCell>
        <mxCell id="SI7507P59rwNNI1zx-k7-65" value="End" style="ellipse;whiteSpace=wrap;html=1;dashed=1;fillColor=#d5e8d4;strokeColor=#82b366;" vertex="1" parent="SI7507P59rwNNI1zx-k7-113">
          <mxGeometry x="208.54285714285714" y="24.18181818181813" width="61.362857142857145" height="40.90909090909091" as="geometry" />
        </mxCell>
        <mxCell id="SI7507P59rwNNI1zx-k7-61" value="" style="edgeStyle=orthogonalEdgeStyle;rounded=0;orthogonalLoop=1;jettySize=auto;html=1;curved=1;" edge="1" parent="SI7507P59rwNNI1zx-k7-113" source="SI7507P59rwNNI1zx-k7-62" target="SI7507P59rwNNI1zx-k7-65">
          <mxGeometry relative="1" as="geometry" />
        </mxCell>
        <mxCell id="SI7507P59rwNNI1zx-k7-68" value="" style="edgeStyle=orthogonalEdgeStyle;rounded=0;orthogonalLoop=1;jettySize=auto;html=1;curved=1;" edge="1" parent="SI7507P59rwNNI1zx-k7-113" source="SI7507P59rwNNI1zx-k7-66" target="SI7507P59rwNNI1zx-k7-65">
          <mxGeometry relative="1" as="geometry" />
        </mxCell>
        <mxCell id="SI7507P59rwNNI1zx-k7-66" value="&lt;h2 style=&quot;border-color: var(--border-color);&quot;&gt;&lt;font style=&quot;border-color: var(--border-color); font-size: 14px;&quot;&gt;动作2&lt;/font&gt;&lt;/h2&gt;" style="ellipse;whiteSpace=wrap;html=1;fillColor=#d5e8d4;strokeColor=#82b366;" vertex="1" parent="SI7507P59rwNNI1zx-k7-113">
          <mxGeometry x="94.04285714285712" y="48.639999999999986" width="81.82" height="41.36" as="geometry" />
        </mxCell>
        <mxCell id="SI7507P59rwNNI1zx-k7-67" value="" style="edgeStyle=orthogonalEdgeStyle;rounded=0;orthogonalLoop=1;jettySize=auto;html=1;curved=1;" edge="1" parent="SI7507P59rwNNI1zx-k7-113" source="SI7507P59rwNNI1zx-k7-64" target="SI7507P59rwNNI1zx-k7-66">
          <mxGeometry relative="1" as="geometry" />
        </mxCell>
        <mxCell id="SI7507P59rwNNI1zx-k7-122" value="" style="group" vertex="1" connectable="0" parent="1">
          <mxGeometry x="119.99714285714285" y="733.64" width="269.9057142857143" height="90" as="geometry" />
        </mxCell>
        <mxCell id="SI7507P59rwNNI1zx-k7-123" value="&lt;h2 style=&quot;border-color: var(--border-color);&quot;&gt;&lt;font style=&quot;font-size: 14px;&quot;&gt;动作3&lt;/font&gt;&lt;/h2&gt;" style="ellipse;whiteSpace=wrap;html=1;fillColor=#d5e8d4;strokeColor=#82b366;" vertex="1" parent="SI7507P59rwNNI1zx-k7-122">
          <mxGeometry x="92.04285714285712" width="81.82" height="41.82" as="geometry" />
        </mxCell>
        <mxCell id="SI7507P59rwNNI1zx-k7-124" value="" style="edgeStyle=orthogonalEdgeStyle;rounded=0;orthogonalLoop=1;jettySize=auto;html=1;curved=1;" edge="1" parent="SI7507P59rwNNI1zx-k7-122" source="SI7507P59rwNNI1zx-k7-125" target="SI7507P59rwNNI1zx-k7-123">
          <mxGeometry relative="1" as="geometry" />
        </mxCell>
        <mxCell id="SI7507P59rwNNI1zx-k7-125" value="Start" style="ellipse;whiteSpace=wrap;html=1;dashed=1;fillColor=#d5e8d4;strokeColor=#82b366;" vertex="1" parent="SI7507P59rwNNI1zx-k7-122">
          <mxGeometry y="28.181818181818244" width="54.54476190476191" height="36.361363636363635" as="geometry" />
        </mxCell>
        <mxCell id="SI7507P59rwNNI1zx-k7-126" value="End" style="ellipse;whiteSpace=wrap;html=1;dashed=1;fillColor=#d5e8d4;strokeColor=#82b366;" vertex="1" parent="SI7507P59rwNNI1zx-k7-122">
          <mxGeometry x="208.54285714285714" y="24.18181818181813" width="61.362857142857145" height="40.90909090909091" as="geometry" />
        </mxCell>
        <mxCell id="SI7507P59rwNNI1zx-k7-127" value="" style="edgeStyle=orthogonalEdgeStyle;rounded=0;orthogonalLoop=1;jettySize=auto;html=1;curved=1;" edge="1" parent="SI7507P59rwNNI1zx-k7-122" source="SI7507P59rwNNI1zx-k7-123" target="SI7507P59rwNNI1zx-k7-126">
          <mxGeometry relative="1" as="geometry" />
        </mxCell>
        <mxCell id="SI7507P59rwNNI1zx-k7-128" value="" style="edgeStyle=orthogonalEdgeStyle;rounded=0;orthogonalLoop=1;jettySize=auto;html=1;curved=1;" edge="1" parent="SI7507P59rwNNI1zx-k7-122" source="SI7507P59rwNNI1zx-k7-129" target="SI7507P59rwNNI1zx-k7-126">
          <mxGeometry relative="1" as="geometry" />
        </mxCell>
        <mxCell id="SI7507P59rwNNI1zx-k7-129" value="&lt;h2 style=&quot;border-color: var(--border-color);&quot;&gt;&lt;font style=&quot;border-color: var(--border-color); font-size: 14px;&quot;&gt;动作4&lt;/font&gt;&lt;/h2&gt;" style="ellipse;whiteSpace=wrap;html=1;fillColor=#d5e8d4;strokeColor=#82b366;" vertex="1" parent="SI7507P59rwNNI1zx-k7-122">
          <mxGeometry x="94.04285714285712" y="48.639999999999986" width="81.82" height="41.36" as="geometry" />
        </mxCell>
        <mxCell id="SI7507P59rwNNI1zx-k7-130" value="" style="edgeStyle=orthogonalEdgeStyle;rounded=0;orthogonalLoop=1;jettySize=auto;html=1;curved=1;" edge="1" parent="SI7507P59rwNNI1zx-k7-122" source="SI7507P59rwNNI1zx-k7-125" target="SI7507P59rwNNI1zx-k7-129">
          <mxGeometry relative="1" as="geometry" />
        </mxCell>
        <mxCell id="SI7507P59rwNNI1zx-k7-131" value="" style="group" vertex="1" connectable="0" parent="1">
          <mxGeometry x="469.9971428571429" y="737.28" width="269.9057142857143" height="90" as="geometry" />
        </mxCell>
        <mxCell id="SI7507P59rwNNI1zx-k7-132" value="&lt;h2 style=&quot;border-color: var(--border-color);&quot;&gt;&lt;font style=&quot;font-size: 14px;&quot;&gt;动作5&lt;/font&gt;&lt;/h2&gt;" style="ellipse;whiteSpace=wrap;html=1;fillColor=#d5e8d4;strokeColor=#82b366;" vertex="1" parent="SI7507P59rwNNI1zx-k7-131">
          <mxGeometry x="92.04285714285712" width="81.82" height="41.82" as="geometry" />
        </mxCell>
        <mxCell id="SI7507P59rwNNI1zx-k7-133" value="" style="edgeStyle=orthogonalEdgeStyle;rounded=0;orthogonalLoop=1;jettySize=auto;html=1;curved=1;" edge="1" parent="SI7507P59rwNNI1zx-k7-131" source="SI7507P59rwNNI1zx-k7-134" target="SI7507P59rwNNI1zx-k7-132">
          <mxGeometry relative="1" as="geometry" />
        </mxCell>
        <mxCell id="SI7507P59rwNNI1zx-k7-134" value="Start" style="ellipse;whiteSpace=wrap;html=1;dashed=1;" vertex="1" parent="SI7507P59rwNNI1zx-k7-131">
          <mxGeometry y="28.181818181818244" width="54.54476190476191" height="36.361363636363635" as="geometry" />
        </mxCell>
        <mxCell id="SI7507P59rwNNI1zx-k7-135" value="End" style="ellipse;whiteSpace=wrap;html=1;dashed=1;fillColor=#d5e8d4;strokeColor=#82b366;" vertex="1" parent="SI7507P59rwNNI1zx-k7-131">
          <mxGeometry x="208.54285714285714" y="23.18181818181813" width="61.362857142857145" height="40.90909090909091" as="geometry" />
        </mxCell>
        <mxCell id="SI7507P59rwNNI1zx-k7-136" value="" style="edgeStyle=orthogonalEdgeStyle;rounded=0;orthogonalLoop=1;jettySize=auto;html=1;curved=1;" edge="1" parent="SI7507P59rwNNI1zx-k7-131" source="SI7507P59rwNNI1zx-k7-132" target="SI7507P59rwNNI1zx-k7-135">
          <mxGeometry relative="1" as="geometry" />
        </mxCell>
        <mxCell id="SI7507P59rwNNI1zx-k7-137" value="" style="edgeStyle=orthogonalEdgeStyle;rounded=0;orthogonalLoop=1;jettySize=auto;html=1;curved=1;" edge="1" parent="SI7507P59rwNNI1zx-k7-131" source="SI7507P59rwNNI1zx-k7-138" target="SI7507P59rwNNI1zx-k7-135">
          <mxGeometry relative="1" as="geometry" />
        </mxCell>
        <mxCell id="SI7507P59rwNNI1zx-k7-138" value="&lt;h2 style=&quot;border-color: var(--border-color);&quot;&gt;&lt;font style=&quot;border-color: var(--border-color); font-size: 14px;&quot;&gt;动作6&lt;/font&gt;&lt;/h2&gt;" style="ellipse;whiteSpace=wrap;html=1;fillColor=#d5e8d4;strokeColor=#82b366;" vertex="1" parent="SI7507P59rwNNI1zx-k7-131">
          <mxGeometry x="94.04285714285712" y="48.639999999999986" width="81.82" height="41.36" as="geometry" />
        </mxCell>
        <mxCell id="SI7507P59rwNNI1zx-k7-139" value="" style="edgeStyle=orthogonalEdgeStyle;rounded=0;orthogonalLoop=1;jettySize=auto;html=1;curved=1;" edge="1" parent="SI7507P59rwNNI1zx-k7-131" source="SI7507P59rwNNI1zx-k7-134" target="SI7507P59rwNNI1zx-k7-138">
          <mxGeometry relative="1" as="geometry" />
        </mxCell>
        <mxCell id="SI7507P59rwNNI1zx-k7-149" value="Start" style="ellipse;whiteSpace=wrap;html=1;dashed=1;" vertex="1" parent="SI7507P59rwNNI1zx-k7-131">
          <mxGeometry y="28.181818181818244" width="54.54476190476191" height="36.361363636363635" as="geometry" />
        </mxCell>
        <mxCell id="SI7507P59rwNNI1zx-k7-150" value="Start" style="ellipse;whiteSpace=wrap;html=1;dashed=1;fillColor=#d5e8d4;strokeColor=#82b366;" vertex="1" parent="SI7507P59rwNNI1zx-k7-131">
          <mxGeometry y="28.181818181818244" width="54.54476190476191" height="36.361363636363635" as="geometry" />
        </mxCell>
        <mxCell id="SI7507P59rwNNI1zx-k7-140" value="" style="group" vertex="1" connectable="0" parent="1">
          <mxGeometry x="769.9971428571429" y="520" width="269.9057142857143" height="90" as="geometry" />
        </mxCell>
        <mxCell id="SI7507P59rwNNI1zx-k7-141" value="&lt;h2 style=&quot;border-color: var(--border-color);&quot;&gt;&lt;font style=&quot;font-size: 14px;&quot;&gt;动作5&lt;/font&gt;&lt;/h2&gt;" style="ellipse;whiteSpace=wrap;html=1;fillColor=#d5e8d4;strokeColor=#82b366;" vertex="1" parent="SI7507P59rwNNI1zx-k7-140">
          <mxGeometry x="92.04285714285712" width="81.82" height="41.82" as="geometry" />
        </mxCell>
        <mxCell id="SI7507P59rwNNI1zx-k7-142" value="" style="edgeStyle=orthogonalEdgeStyle;rounded=0;orthogonalLoop=1;jettySize=auto;html=1;curved=1;" edge="1" parent="SI7507P59rwNNI1zx-k7-140" source="SI7507P59rwNNI1zx-k7-143" target="SI7507P59rwNNI1zx-k7-141">
          <mxGeometry relative="1" as="geometry" />
        </mxCell>
        <mxCell id="SI7507P59rwNNI1zx-k7-143" value="Start" style="ellipse;whiteSpace=wrap;html=1;dashed=1;fillColor=#d5e8d4;strokeColor=#82b366;" vertex="1" parent="SI7507P59rwNNI1zx-k7-140">
          <mxGeometry y="28.181818181818244" width="54.54476190476191" height="36.361363636363635" as="geometry" />
        </mxCell>
        <mxCell id="SI7507P59rwNNI1zx-k7-144" value="End" style="ellipse;whiteSpace=wrap;html=1;dashed=1;fillColor=#d5e8d4;strokeColor=#82b366;" vertex="1" parent="SI7507P59rwNNI1zx-k7-140">
          <mxGeometry x="208.54285714285714" y="23.18181818181813" width="61.362857142857145" height="40.90909090909091" as="geometry" />
        </mxCell>
        <mxCell id="SI7507P59rwNNI1zx-k7-145" value="" style="edgeStyle=orthogonalEdgeStyle;rounded=0;orthogonalLoop=1;jettySize=auto;html=1;curved=1;" edge="1" parent="SI7507P59rwNNI1zx-k7-140" source="SI7507P59rwNNI1zx-k7-141" target="SI7507P59rwNNI1zx-k7-144">
          <mxGeometry relative="1" as="geometry" />
        </mxCell>
        <mxCell id="SI7507P59rwNNI1zx-k7-146" value="" style="edgeStyle=orthogonalEdgeStyle;rounded=0;orthogonalLoop=1;jettySize=auto;html=1;curved=1;" edge="1" parent="SI7507P59rwNNI1zx-k7-140" source="SI7507P59rwNNI1zx-k7-147" target="SI7507P59rwNNI1zx-k7-144">
          <mxGeometry relative="1" as="geometry" />
        </mxCell>
        <mxCell id="SI7507P59rwNNI1zx-k7-147" value="&lt;h2 style=&quot;border-color: var(--border-color);&quot;&gt;&lt;font style=&quot;border-color: var(--border-color); font-size: 14px;&quot;&gt;动作6&lt;/font&gt;&lt;/h2&gt;" style="ellipse;whiteSpace=wrap;html=1;fillColor=#d5e8d4;strokeColor=#82b366;" vertex="1" parent="SI7507P59rwNNI1zx-k7-140">
          <mxGeometry x="94.04285714285712" y="48.639999999999986" width="81.82" height="41.36" as="geometry" />
        </mxCell>
        <mxCell id="SI7507P59rwNNI1zx-k7-148" value="" style="edgeStyle=orthogonalEdgeStyle;rounded=0;orthogonalLoop=1;jettySize=auto;html=1;curved=1;" edge="1" parent="SI7507P59rwNNI1zx-k7-140" source="SI7507P59rwNNI1zx-k7-143" target="SI7507P59rwNNI1zx-k7-147">
          <mxGeometry relative="1" as="geometry" />
        </mxCell>
        <mxCell id="SI7507P59rwNNI1zx-k7-3" value="&lt;h2&gt;&lt;/h2&gt;&lt;h2 style=&quot;border-color: var(--border-color); text-align: center;&quot;&gt;&amp;nbsp;根场景&lt;/h2&gt;&lt;div&gt;&lt;br&gt;&lt;/div&gt;&lt;div&gt;&lt;br&gt;&lt;/div&gt;&lt;div&gt;&lt;br&gt;&lt;/div&gt;&lt;div&gt;&lt;br&gt;&lt;/div&gt;&lt;div&gt;&lt;br&gt;&lt;/div&gt;&lt;div&gt;&lt;br&gt;&lt;/div&gt;&lt;div&gt;&lt;br&gt;&lt;/div&gt;&lt;div&gt;&lt;br&gt;&lt;/div&gt;&lt;div&gt;&lt;br&gt;&lt;/div&gt;" style="rounded=1;whiteSpace=wrap;html=1;dashed=1;dashPattern=1 4;align=left;" vertex="1" parent="1">
          <mxGeometry x="130" y="280" width="500" height="150" as="geometry" />
        </mxCell>
        <mxCell id="SI7507P59rwNNI1zx-k7-2" value="&lt;h2 style=&quot;border-color: var(--border-color);&quot;&gt;&lt;span style=&quot;font-weight: normal;&quot;&gt;场景1&lt;/span&gt;&lt;/h2&gt;" style="ellipse;whiteSpace=wrap;html=1;fontStyle=0" vertex="1" parent="1">
          <mxGeometry x="255" y="336" width="93.75" height="47.14" as="geometry" />
        </mxCell>
        <mxCell id="SI7507P59rwNNI1zx-k7-4" value="&lt;h2 style=&quot;border-color: var(--border-color);&quot;&gt;&lt;span style=&quot;font-weight: normal;&quot;&gt;场景3&lt;/span&gt;&lt;/h2&gt;" style="ellipse;whiteSpace=wrap;html=1;fontStyle=0" vertex="1" parent="1">
          <mxGeometry x="419.06" y="310" width="93.75" height="48.57" as="geometry" />
        </mxCell>
        <mxCell id="SI7507P59rwNNI1zx-k7-28" value="" style="edgeStyle=orthogonalEdgeStyle;rounded=0;orthogonalLoop=1;jettySize=auto;html=1;curved=1;" edge="1" parent="1" source="SI7507P59rwNNI1zx-k7-2" target="SI7507P59rwNNI1zx-k7-4">
          <mxGeometry relative="1" as="geometry" />
        </mxCell>
        <mxCell id="SI7507P59rwNNI1zx-k7-5" value="&lt;h2 style=&quot;border-color: var(--border-color);&quot;&gt;&lt;span style=&quot;font-weight: normal;&quot;&gt;场景2&lt;/span&gt;&lt;/h2&gt;" style="ellipse;whiteSpace=wrap;html=1;fontStyle=0" vertex="1" parent="1">
          <mxGeometry x="387.81" y="365.71" width="93.75" height="54.29" as="geometry" />
        </mxCell>
        <mxCell id="SI7507P59rwNNI1zx-k7-26" value="" style="edgeStyle=orthogonalEdgeStyle;rounded=0;orthogonalLoop=1;jettySize=auto;html=1;curved=1;" edge="1" parent="1" source="SI7507P59rwNNI1zx-k7-2" target="SI7507P59rwNNI1zx-k7-5">
          <mxGeometry relative="1" as="geometry" />
        </mxCell>
        <mxCell id="SI7507P59rwNNI1zx-k7-31" value="" style="edgeStyle=orthogonalEdgeStyle;rounded=0;orthogonalLoop=1;jettySize=auto;html=1;" edge="1" parent="1" source="SI7507P59rwNNI1zx-k7-29" target="SI7507P59rwNNI1zx-k7-2">
          <mxGeometry relative="1" as="geometry" />
        </mxCell>
        <mxCell id="SI7507P59rwNNI1zx-k7-29" value="Start" style="ellipse;whiteSpace=wrap;html=1;dashed=1;" vertex="1" parent="1">
          <mxGeometry x="161.25" y="339.5214285714286" width="62.5" height="38.09285714285714" as="geometry" />
        </mxCell>
        <mxCell id="SI7507P59rwNNI1zx-k7-30" value="End" style="ellipse;whiteSpace=wrap;html=1;dashed=1;" vertex="1" parent="1">
          <mxGeometry x="544.0625" y="337.1428571428571" width="70.3125" height="40.47142857142857" as="geometry" />
        </mxCell>
        <mxCell id="SI7507P59rwNNI1zx-k7-32" value="" style="edgeStyle=orthogonalEdgeStyle;rounded=0;orthogonalLoop=1;jettySize=auto;html=1;curved=1;" edge="1" parent="1" source="SI7507P59rwNNI1zx-k7-4" target="SI7507P59rwNNI1zx-k7-30">
          <mxGeometry relative="1" as="geometry" />
        </mxCell>
        <mxCell id="SI7507P59rwNNI1zx-k7-33" value="" style="edgeStyle=orthogonalEdgeStyle;rounded=0;orthogonalLoop=1;jettySize=auto;html=1;curved=1;" edge="1" parent="1" source="SI7507P59rwNNI1zx-k7-5" target="SI7507P59rwNNI1zx-k7-30">
          <mxGeometry relative="1" as="geometry" />
        </mxCell>
      </root>
    </mxGraphModel>
  </diagram>
</mxfile>
